<svg xmlns="http://www.w3.org/2000/svg" xmlns:xlink="http://www.w3.org/1999/xlink" width="2279" height="1583" viewBox="0 0 2279 1583">
  <defs>
    <linearGradient id="linear-gradient" x1="0.646" y1="-6.858" x2="0.33" y2="7.967" gradientUnits="objectBoundingBox">
      <stop offset="0" stop-color="#127a8c"/>
      <stop offset="1" stop-color="#1e3286"/>
    </linearGradient>
    <linearGradient id="linear-gradient-2" x1="0.688" y1="-8.183" x2="0.367" y2="6.642" xlink:href="#linear-gradient"/>
    <linearGradient id="linear-gradient-3" x1="0.691" y1="-0.269" x2="0.043" y2="2.339" gradientUnits="objectBoundingBox">
      <stop offset="0" stop-color="#21e7fc"/>
      <stop offset="1" stop-color="#2151fc"/>
    </linearGradient>
    <linearGradient id="linear-gradient-4" x1="0.674" y1="-0.17" x2="0.145" y2="1.863" xlink:href="#linear-gradient-3"/>
    <linearGradient id="linear-gradient-5" x1="0.665" y1="-0.107" x2="0.209" y2="1.569" xlink:href="#linear-gradient-3"/>
    <linearGradient id="linear-gradient-6" x1="0.902" y1="-1.298" x2="0.342" y2="1.206" xlink:href="#linear-gradient-3"/>
    <linearGradient id="linear-gradient-7" x1="0.817" y1="-0.856" x2="0.354" y2="1.121" xlink:href="#linear-gradient-3"/>
    <linearGradient id="linear-gradient-8" x1="0.76" y1="-0.566" x2="0.362" y2="1.066" xlink:href="#linear-gradient-3"/>
    <linearGradient id="linear-gradient-9" x1="0.521" y1="-0.266" x2="0.48" y2="1.217" xlink:href="#linear-gradient-3"/>
    <clipPath id="clip-TRANSPARENT">
      <rect width="2279" height="1583"/>
    </clipPath>
  </defs>
  <g id="TRANSPARENT" clip-path="url(#clip-TRANSPARENT)">
    <g id="Component_5_3" data-name="Component 5 – 3" transform="translate(505 254.664)">
      <g id="Original_Logo" data-name="Original Logo" transform="translate(-56.3 -272.7)">
        <g id="Group_31" data-name="Group 31" transform="translate(329.3 272.7)">
          <path id="Path_29" data-name="Path 29" d="M874.183,665.03H503.1V620.7H903.641Z" transform="translate(-378.834 -371.881)" fill="#28517c"/>
          <path id="Path_30" data-name="Path 30" d="M749.1,620.7H509.077L489.2,665.03H719.786Z" transform="translate(-374.872 -371.881)" opacity="0.47"/>
          <path id="Path_31" data-name="Path 31" d="M936.047,763.13H544.3V718.8H966.219Z" transform="translate(-390.576 -399.84)" fill="url(#linear-gradient)"/>
          <path id="Path_32" data-name="Path 32" d="M951.872,718.8a56.166,56.166,0,0,1,1.787,11.369c.429,10.01-4.79,21.521-11.8,28.528a35.335,35.335,0,0,1-5.362,4.433h63.849l29.315-44.33H951.872Z" transform="translate(-502.354 -399.84)" opacity="0.47"/>
          <path id="Path_33" data-name="Path 33" d="M725.377,718.8H567.648L547.7,763.13H696.133Z" transform="translate(-391.545 -399.84)" opacity="0.47"/>
          <path id="Path_34" data-name="Path 34" d="M989.442,860.63H602.7l19.448-44.33h397.4Z" transform="translate(-407.22 -427.628)" fill="url(#linear-gradient-2)"/>
          <path id="Path_35" data-name="Path 35" d="M891.912,816.3q.322,2.467.429,4.934c.429,10.01-4.79,21.521-11.8,28.528a39.8,39.8,0,0,1-13.514,8.794c-.429.715-.929,1.43-1.43,2.145h159.015l29.315-44.33H891.912Z" transform="translate(-482.147 -427.628)" opacity="0.47"/>
          <path id="Path_36" data-name="Path 36" d="M701.289,816.3H632.077c3.074,9.581-.071,21.021-4.576,29.529a37.2,37.2,0,0,1-15.3,14.8h59.917Z" transform="translate(-409.927 -427.628)" opacity="0.47"/>
          <path id="Path_37" data-name="Path 37" d="M593.168,329.9,438.8,581.936h54.626L645.148,329.9Z" transform="translate(-360.508 -289.002)" fill="url(#linear-gradient-3)"/>
          <path id="Path_38" data-name="Path 38" d="M704.656,329.9,504.1,653.078h54.626L756.78,329.9Z" transform="translate(-379.119 -289.002)" fill="url(#linear-gradient-4)"/>
          <path id="Path_39" data-name="Path 39" d="M812.782,329.9,571.9,722h54.626L864.763,329.9Z" transform="translate(-398.442 -289.002)" fill="url(#linear-gradient-5)"/>
          <path id="Path_40" data-name="Path 40" d="M917.7,1079.275,1102.451,816.8h-55.2L864,1079.275Z" transform="translate(-481.691 -427.77)" fill="url(#linear-gradient-6)"/>
          <path id="Path_41" data-name="Path 41" d="M784.682,1051.4,1019.344,719h-55.2L730.7,1051.4Z" transform="translate(-443.7 -399.897)" fill="url(#linear-gradient-7)"/>
          <path id="Path_42" data-name="Path 42" d="M654.2,1023.386,936.405,620.7H881.422L600.5,1023.386Z" transform="translate(-406.593 -371.881)" fill="url(#linear-gradient-8)"/>
          <path id="Path_43" data-name="Path 43" d="M673.356,960.813a343.146,343.146,0,1,1,133.919-27.027A341.611,341.611,0,0,1,673.356,960.813Zm0-643.854c-165.307,0-299.8,134.491-299.8,299.8s134.491,299.8,299.8,299.8,299.8-134.491,299.8-299.8S838.664,316.958,673.356,316.958Z" transform="translate(-329.3 -272.7)" fill="url(#linear-gradient-9)"/>
        </g>
      </g>
      <g id="Group_32" data-name="Group 32" transform="translate(-140.464 436.479)">
        <path id="Path_44" data-name="Path 44" d="M188.943,442.282h0V418.35a5.088,5.088,0,0,0-1.233-3.854q-1.231-1.116-4.355-1.118H165.012q-24.544,0-24.548-23.315h0V359.891q0-22.891,26.243-22.891h25.357q26.243,0,26.243,22.891h0v17.264h-29.75v-13.1q0-5.2-5.626-5.2H175.84q-5.624,0-5.626,5.2h0v23.315a4.869,4.869,0,0,0,1.272,3.815q1.237,1.156,4.355,1.156H193.76q13.295,0,19.114,5.742,5.861,5.705,5.858,16.956h0v31.215q0,23.081-26.243,23.083H167.324q-26.434,0-26.436-23.083h0V429.179h29.75v13.1q0,5.2,5.626,5.2h7.091Q188.945,447.484,188.943,442.282Zm98.884-29.326v34.529h42.467v21.85H258.077V337H328.6v21.85H287.827v32.255h34.76v21.85Zm168.79,56.379H426.635L422.088,445.4H391.914l-4.586,23.931H357.964L387.945,337h37.881ZM406.866,367.791l-10.79,55.993H417.7Zm138.423,48.286V337h27.245V469.334H545.906L517,390.065v79.269H489.951V337h26.821ZM666.255,337h78.229v21.85H720.129V469.334h-29.75V358.85H666.255ZM834,392.955V337H863.33V469.334H834V414.805H807.337v54.529H778.01V337h29.326v55.955ZM930.769,337h27.9q26.208,0,26.2,22.891h0v86.36q0,23.081-26.2,23.083h-27.9q-26.434,0-26.436-23.083h0v-86.36Q904.333,337,930.769,337Zm24.355,105.282h0V364.053q0-5.2-5.4-5.2H939.709q-5.584,0-5.588,5.2h0v78.229q0,5.2,5.588,5.2h10.019Q955.128,447.484,955.124,442.282Zm97-61.581v88.634h-26.2V337h32.448l21.85,74.915L1102.063,337h32.448V469.334h-26.2V380.469l-17.072,60.155h-22.043Zm214.571,88.634h-29.981l-4.547-23.931h-30.174l-4.586,23.931h-29.365L1198.019,337H1235.9ZM1216.94,367.791l-10.79,55.993h21.619ZM1346,442.282h0V418.35a5.089,5.089,0,0,0-1.233-3.854q-1.272-1.116-4.393-1.118h-18.3q-24.544,0-24.548-23.315h0V359.891q0-22.891,26.2-22.891h25.4q26.209,0,26.2,22.891h0v17.264h-29.75v-13.1q0-5.2-5.626-5.2H1332.9q-5.624,0-5.626,5.2h0v23.315a4.965,4.965,0,0,0,1.233,3.815q1.272,1.156,4.393,1.156h17.881q13.336,0,19.153,5.742,5.821,5.705,5.819,16.956h0v31.215q0,23.081-26.2,23.083h-25.2q-26.394,0-26.4-23.083h0V429.179h29.75v13.1q0,5.2,5.626,5.2h7.052Q1346,447.484,1346,442.282Z" transform="translate(0 0)" fill="#87daff"/>
      </g>
      <path id="Path_44-2" data-name="Path 44" d="M4.977,0V-42.021H11.97V0ZM32.634,0V-42.021h6.678L63.567-8.442l-1.953,3.78V-42.021h6.615V0H61.992L37.044-34.272l2.2-3.087V0ZM88.893,0V-42.021h6.678L119.826-8.442l-1.953,3.78V-42.021h6.615V0h-6.237L93.3-34.272l2.205-3.087V0Zm74.151.693A21.846,21.846,0,0,1,152.428-1.7a15.473,15.473,0,0,1-6.646-7.182,28.259,28.259,0,0,1-2.268-12.1q0-10.773,5.008-16.254t14.521-5.481a21.8,21.8,0,0,1,10.647,2.394,15.663,15.663,0,0,1,6.646,7.214,28.137,28.137,0,0,1,2.3,12.127q0,10.71-5.008,16.191T163.044.693Zm0-5.985A13.608,13.608,0,0,0,170.006-6.9,9.723,9.723,0,0,0,174.1-11.97a25.338,25.338,0,0,0,1.355-9.072A24.858,24.858,0,0,0,174.1-30.02a9.728,9.728,0,0,0-4.095-5.04,13.608,13.608,0,0,0-6.962-1.606,13.434,13.434,0,0,0-6.93,1.638,9.839,9.839,0,0,0-4.126,5.072,24.858,24.858,0,0,0-1.355,8.978,25.122,25.122,0,0,0,1.355,9.009A9.674,9.674,0,0,0,156.114-6.9,13.645,13.645,0,0,0,163.044-5.292ZM212.058,0,196.119-42.021h7.812L217.35-4.851h-2.331l13.23-37.107,7.308-.063L219.24,0Zm32.634,0,16.38-42.021h7.371L284.382,0h-7.308L263.025-38.619l2.646-.252L251.622,0Zm8.064-11.4,2.016-5.67h19.971l.567,5.67ZM307.314,0V-36.162H293.706v-5.859h34.146v5.859H314.244V0Zm37.548,0V-42.021h6.993V0Zm39.69,0L368.613-42.021h7.812l13.419,37.17h-2.331l13.23-37.107,7.308-.063L391.734,0Zm40.257,0V-42.021H452.34v5.859H431.8V-24h17.892v5.922H431.739V-5.859h20.6V0Zm76.23,0V-42.021h18.648q6.552,0,10.049,3.182t3.5,9.481a13.858,13.858,0,0,1-1.323,6.048,11.489,11.489,0,0,1-3.843,4.536,11.7,11.7,0,0,1-5.985,2.016l.756-2.142L535.311,0H526.68L515.025-18.837l3.213,2.961H507.969V0Zm6.93-21.546h9.765q4.158,0,6.206-1.827t2.047-5.544a8.033,8.033,0,0,0-1.607-5.355q-1.606-1.89-5.512-1.89h-10.9ZM569.9.693A21.847,21.847,0,0,1,559.282-1.7a15.473,15.473,0,0,1-6.646-7.182,28.259,28.259,0,0,1-2.268-12.1q0-10.773,5.008-16.254T569.9-42.714a21.8,21.8,0,0,1,10.647,2.394,15.663,15.663,0,0,1,6.646,7.214,28.137,28.137,0,0,1,2.3,12.127q0,10.71-5.008,16.191T569.9.693Zm0-5.985A13.608,13.608,0,0,0,576.859-6.9a9.723,9.723,0,0,0,4.095-5.072,25.337,25.337,0,0,0,1.354-9.072,24.858,24.858,0,0,0-1.354-8.978,9.728,9.728,0,0,0-4.095-5.04,13.608,13.608,0,0,0-6.961-1.606,13.434,13.434,0,0,0-6.93,1.638,9.839,9.839,0,0,0-4.127,5.072,24.858,24.858,0,0,0-1.354,8.978,25.122,25.122,0,0,0,1.354,9.009A9.674,9.674,0,0,0,562.968-6.9,13.645,13.645,0,0,0,569.9-5.292ZM608.454,0V-42.021h15.561a20.956,20.956,0,0,1,8.284,1.386,9.775,9.775,0,0,1,4.693,3.938,11.712,11.712,0,0,1,1.512,6.08,8.131,8.131,0,0,1-1.071,4.442,9.173,9.173,0,0,1-2.551,2.677q-1.48,1.008-2.8,1.89l-.819-1.449a14.107,14.107,0,0,1,4.6,1.733,10.577,10.577,0,0,1,3.622,3.528,10.225,10.225,0,0,1,1.417,5.576,11.674,11.674,0,0,1-1.953,6.993A11.177,11.177,0,0,1,633.5-1.26,23.627,23.627,0,0,1,625.464,0Zm6.993-5.8H625.4a15.315,15.315,0,0,0,4.126-.535,5.792,5.792,0,0,0,3.087-2.016,6.631,6.631,0,0,0,1.165-4.189,6.445,6.445,0,0,0-.756-3.339,5.122,5.122,0,0,0-1.984-1.922,8.262,8.262,0,0,0-2.772-.882,21.585,21.585,0,0,0-3.056-.22h-9.765Zm-.063-18.711h9.45a12,12,0,0,0,3.15-.409,4.893,4.893,0,0,0,2.52-1.607,5.355,5.355,0,0,0,1.008-3.528q0-3.528-1.984-4.819a9.517,9.517,0,0,0-5.26-1.292h-8.883Zm62.37,25.2A21.847,21.847,0,0,1,667.138-1.7a15.473,15.473,0,0,1-6.646-7.182,28.259,28.259,0,0,1-2.268-12.1q0-10.773,5.008-16.254t14.522-5.481A21.8,21.8,0,0,1,688.4-40.32a15.663,15.663,0,0,1,6.646,7.214,28.137,28.137,0,0,1,2.3,12.127q0,10.71-5.008,16.191T677.754.693Zm0-5.985A13.608,13.608,0,0,0,684.716-6.9a9.723,9.723,0,0,0,4.095-5.072,25.339,25.339,0,0,0,1.355-9.072,24.859,24.859,0,0,0-1.355-8.978,9.728,9.728,0,0,0-4.095-5.04,13.608,13.608,0,0,0-6.961-1.606,13.434,13.434,0,0,0-6.93,1.638,9.839,9.839,0,0,0-4.127,5.072,24.858,24.858,0,0,0-1.354,8.978A25.122,25.122,0,0,0,666.7-11.97,9.674,9.674,0,0,0,670.824-6.9,13.645,13.645,0,0,0,677.754-5.292ZM725.571,0V-36.162H711.963v-5.859h34.146v5.859H732.5V0Zm37.548,0V-42.021h6.993V0Zm45.675.63q-9.891,0-14.931-5.355t-5.04-16.317q0-10.773,4.977-16.223t14.994-5.449a27.557,27.557,0,0,1,6.646.819,34.568,34.568,0,0,1,6.395,2.268v6.237a25.524,25.524,0,0,0-6.143-2.678,22.368,22.368,0,0,0-6.016-.85,16.073,16.073,0,0,0-7.655,1.638,10.042,10.042,0,0,0-4.536,5.1,23.775,23.775,0,0,0-1.481,9.2,23.18,23.18,0,0,0,1.512,9.1,10.023,10.023,0,0,0,4.568,5.1,16.645,16.645,0,0,0,7.78,1.606,21.6,21.6,0,0,0,5.859-.851,27.178,27.178,0,0,0,6.111-2.615v6.237a27.742,27.742,0,0,1-4.1,1.638A30.017,30.017,0,0,1,813.267.284,29.587,29.587,0,0,1,808.794.63Zm44.919.063a39.138,39.138,0,0,1-5.544-.347,19.937,19.937,0,0,1-4.347-1.1,41.7,41.7,0,0,1-4.032-1.827v-6.93A20.836,20.836,0,0,0,845.744-6.3a22.043,22.043,0,0,0,7.529,1.26q3.906,0,5.828-1.606a5.476,5.476,0,0,0,1.922-4.442,4.7,4.7,0,0,0-1.418-3.559,11.752,11.752,0,0,0-3.748-2.3q-2.331-.945-4.977-1.89-2.016-.756-3.969-1.607a14.931,14.931,0,0,1-3.528-2.142,9.308,9.308,0,0,1-2.52-3.308,11.691,11.691,0,0,1-.945-4.977,11.763,11.763,0,0,1,.819-4.221,11.431,11.431,0,0,1,2.488-3.875,11.842,11.842,0,0,1,4.41-2.772,18.591,18.591,0,0,1,6.583-1.039,26.547,26.547,0,0,1,4.378.315,17.477,17.477,0,0,1,3.528.977q1.669.661,3.622,1.606v6.8q-1.575-1.008-3.182-1.89a17.971,17.971,0,0,0-3.5-1.449,16.2,16.2,0,0,0-4.221-.63,10.932,10.932,0,0,0-4.347.63,5.647,5.647,0,0,0-2.583,1.953,4.928,4.928,0,0,0-.882,2.9,5.208,5.208,0,0,0,1.1,3.5,8.2,8.2,0,0,0,3.119,2.142q2.016.85,4.662,1.669,2.331.756,4.536,1.7a16.944,16.944,0,0,1,3.906,2.3,10.255,10.255,0,0,1,2.74,3.37,10.776,10.776,0,0,1,1.039,4.977,13.194,13.194,0,0,1-1.48,6.142A11.321,11.321,0,0,1,862-1.1,16.765,16.765,0,0,1,853.713.693Z" transform="translate(196 1023.336)" fill="#cbcbcb"/>
    </g>
  </g>
</svg>
